# xmcd
#
# Track frame offsets:
#	150
#	15392
#	31276
#	48814
#	74148
#	93562
#	116613
#	140629
#	153053
#	167388
#	186153
#	202712
#	226409
#
# Disc length: 3431 seconds
#
# Revision: 1
# Processed by: cddbd v1.5.2PL0 Copyright (c) Steve Scherf et al.
# Submitted via: audiograbber 1.83.01
#
DISCID=a00d650d
DTITLE=The Black Cats - The Black Cats
DYEAR=2008
DGENRE=Blues
TTITLE0=Hideaway
TTITLE1=I Don't Know
TTITLE2=What's The Reason
TTITLE3=Creepy John
TTITLE4=It's All Right
TTITLE5=Baby's Leavin' Town
TTITLE6=Goin' To That Place
TTITLE7=Steppin' Out
TTITLE8=Too Tired
TTITLE9=Lonely Avenue
TTITLE10=Gangster Of Love
TTITLE11=Nine Below Zero
TTITLE12=How Long Baby
EXTD=
EXTT0=
EXTT1=
EXTT2=
EXTT3=
EXTT4=
EXTT5=
EXTT6=
EXTT7=
EXTT8=
EXTT9=
EXTT10=
EXTT11=
EXTT12=
PLAYORDER=
